<?xml version="1.0" encoding="UTF-8"?>
<svg width="153px" height="153px" viewBox="0 0 153 153" version="1.1" xmlns="http://www.w3.org/2000/svg" xmlns:xlink="http://www.w3.org/1999/xlink">
    <!-- Generator: Sketch 51.3 (57544) - http://www.bohemiancoding.com/sketch -->
    <title>Briefcase</title>
    <desc>Created with Sketch.</desc>
    <defs>
        <linearGradient x1="50%" y1="0%" x2="50%" y2="100%" id="linearGradient-1">
            <stop stop-color="#72015F" offset="0%"></stop>
            <stop stop-color="#FF00AA" offset="100%"></stop>
        </linearGradient>
    </defs>
    <g id="Briefcase" stroke="none" stroke-width="1" fill="none" fill-rule="evenodd">
        <path d="M148.25362,29.8179963 L115.169371,29.8179963 L115.169371,14.5896414 C115.169371,13.1621805 113.994558,12 112.57973,12 L41.2635312,12 C39.8297542,12 38.6738898,13.1621805 38.6738898,14.5896414 L38.6738898,29.8179963 L5.58964143,29.8179963 C4.16849674,29.8179963 3,30.9801769 3,32.4076377 L3,68.0815275 L3,139.416675 C3,140.844136 4.17481294,142 5.58964143,142 L148.259936,142 C149.681081,142 150.849577,140.837819 150.849577,139.416675 L150.849577,68.0815275 L150.849577,32.4013215 C150.843261,30.9801769 149.674764,29.8179963 148.25362,29.8179963 Z M43.8405403,17.1792829 L109.990088,17.1792829 L109.990088,29.8179963 L43.8405403,29.8179963 L43.8405403,17.1792829 Z M8.17296667,34.9972792 L145.663978,34.9972792 L145.663978,65.4855699 L88.1423574,65.4855699 C88.0539306,65.1002818 87.8202313,64.7907881 87.6875911,64.4181323 C87.5170537,63.8938879 87.3149354,63.4075406 87.081236,62.9211933 C86.6769993,62.1379846 86.190652,61.4558352 85.6285103,60.7926343 C85.2937518,60.3883976 84.9842581,59.9904771 84.6052862,59.63677 C83.9168205,59.0051501 83.1146633,58.5314352 82.3125061,58.0893013 C81.9082694,57.8619182 81.548246,57.5903216 81.1187445,57.4197843 C79.8112914,56.901856 78.4154115,56.5734137 76.9247887,56.5734137 C75.4341658,56.5734137 74.0256535,56.901856 72.7308328,57.4197843 C72.3013313,57.5903216 71.9539403,57.8619182 71.5560198,58.0766689 C70.7285978,58.5188028 69.939073,59.0051501 69.2379749,59.63677 C68.8526868,59.9904771 68.5621417,60.3820814 68.2273832,60.7926343 C67.6715577,61.449519 67.1788942,62.1379846 66.7809737,62.9211933 C66.5346419,63.4075406 66.3262074,63.8875717 66.1493538,64.4181323 C66.0230298,64.7971043 65.7893305,65.106598 65.7072199,65.4855699 L8.18559907,65.4855699 L8.18559907,34.9972792 L8.17296667,34.9972792 Z M70.5706928,68.0815275 C70.5706928,64.5886697 73.4192984,61.7463803 76.9121563,61.7463803 C80.4050141,61.7463803 83.2662521,64.5886697 83.2662521,68.0815275 L83.2662521,85.9121563 C83.2662521,89.3986979 80.4050141,92.2409873 76.9121563,92.2409873 C73.4192984,92.2409873 70.5706928,89.3986979 70.5706928,85.9121563 L70.5706928,68.0815275 Z M145.663978,136.827033 L8.17296667,136.827033 L8.17296667,70.6648528 L65.4040424,70.6648528 L65.4040424,85.9121563 C65.4040424,92.2536197 70.5580604,97.4139539 76.9121563,97.4139539 C83.2662521,97.4139539 88.4329025,92.2536197 88.4329025,85.9121563 L88.4329025,70.6648528 L145.663978,70.6648528 L145.663978,136.827033 Z" id="Shape" fill="url(#linearGradient-1)" fill-rule="nonzero"></path>
    </g>
</svg>