<?xml version="1.0" encoding="UTF-8"?>
<svg width="153px" height="153px" viewBox="0 0 153 153" version="1.1" xmlns="http://www.w3.org/2000/svg" xmlns:xlink="http://www.w3.org/1999/xlink">
    <!-- Generator: Sketch 51.3 (57544) - http://www.bohemiancoding.com/sketch -->
    <title>Compass</title>
    <desc>Created with Sketch.</desc>
    <defs>
        <linearGradient x1="50%" y1="0%" x2="50%" y2="100%" id="linearGradient-1">
            <stop stop-color="#72015F" offset="0%"></stop>
            <stop stop-color="#FF00AA" offset="100%"></stop>
        </linearGradient>
    </defs>
    <g id="Compass" stroke="none" stroke-width="1" fill="none" fill-rule="evenodd">
        <g id="Group" transform="translate(9.000000, 9.000000)" fill="url(#linearGradient-1)" fill-rule="nonzero">
            <path d="M96.4448474,37.2858776 L55.9273259,54.6490093 C55.3412422,54.9002154 54.8986892,55.354779 54.64153,55.9349456 L37.2743149,96.438951 C36.9035272,97.3600403 37.1008819,98.4366382 37.812555,99.1364268 C38.2670689,99.6089337 38.912957,99.8601399 39.5409039,99.8601399 C39.8578675,99.8601399 40.1927725,99.7883667 40.4977752,99.6567825 L81.0152967,82.2936508 C81.6013805,82.0424447 82.0558943,81.5878811 82.3130535,81.0077145 L99.6683078,40.5037091 C100.051056,39.5886009 99.8537016,38.512003 99.1420285,37.8002522 C98.4423163,37.1004635 97.3538752,36.8971061 96.4448474,37.2858776 Z M44.2116322,92.7486126 L57.7274401,61.192332 L75.7644652,79.2313279 L44.2116322,92.7486126 Z M79.2271434,75.7622902 L61.1781574,57.7232944 L92.7369709,44.1940474 L79.2271434,75.7622902 Z" id="Shape"></path>
            <path d="M68,0 C30.5062957,0 0,30.501651 0,67.9970061 C0,105.486373 30.5122832,136 68,136 C105.505679,136 136,105.480386 136,67.9970061 C136.005987,30.501651 105.505679,0 68,0 Z M68,131.102012 C33.2066567,131.102012 4.90974729,102.791881 4.90974729,68.0029939 C4.90974729,33.2141065 33.2126442,4.91595122 68,4.91595122 C102.787356,4.91595122 131.090253,33.2200942 131.090253,68.0029939 C131.09624,102.791881 102.793343,131.102012 68,131.102012 Z" id="Shape"></path>
            <path d="M68,18.0699301 C69.832509,18.0699301 71.3286713,16.5789627 71.3286713,14.7412587 C71.3286713,12.9035548 69.832509,11.4125874 68,11.4125874 C66.167491,11.4125874 64.6713287,12.9035548 64.6713287,14.7412587 C64.6713287,16.5789627 66.167491,18.0699301 68,18.0699301 Z M68,13.3311966 C68.7944738,13.3311966 69.4265734,13.9611014 69.4265734,14.7412587 C69.4265734,16.3073524 66.5850247,16.3073524 66.5850247,14.7412587 C66.5850247,13.9611014 67.2229234,13.3311966 68,13.3311966 Z" id="Shape"></path>
            <path d="M67.9999916,117.93007 C66.1674873,117.93007 64.6713287,119.42493 64.6713287,121.25005 C64.6713287,123.092552 66.1674873,124.587413 67.9999916,124.587413 C69.8324959,124.587413 71.3286545,123.092552 71.3286545,121.25005 C71.3344536,119.42493 69.838295,117.93007 67.9999916,117.93007 Z M66.5850199,121.25005 C66.5850199,120.467856 67.2171179,119.847894 67.9999916,119.847894 C68.7944634,119.847894 69.4265614,120.467856 69.4265614,121.25005 C69.4265614,122.837615 66.5850199,122.837615 66.5850199,121.25005 Z" id="Shape"></path>
            <path d="M121.26453,64.6713287 C119.435208,64.6713287 117.93007,66.1578074 117.93007,67.9913241 C117.93007,69.8364086 119.435208,71.3286713 121.26453,71.3286713 C123.093852,71.3286713 124.587413,69.8364086 124.587413,67.9913241 C124.587413,66.1578074 123.093852,64.6713287 121.26453,64.6713287 Z M119.852016,67.997108 C119.852016,67.2047049 120.45986,66.5916047 121.26453,66.5916047 C122.046044,66.5916047 122.665467,67.2162729 122.665467,67.997108 C122.665467,69.5819142 119.852016,69.5819142 119.852016,67.997108 Z" id="Shape"></path>
            <path d="M14.7412587,64.6713287 C12.9087498,64.6713287 11.4125874,66.1578074 11.4125874,67.9913241 C11.4125874,69.8364086 12.9087498,71.3286713 14.7412587,71.3286713 C16.5737677,71.3286713 18.0699301,69.8364086 18.0699301,67.9913241 C18.0699301,66.1578074 16.5737677,64.6713287 14.7412587,64.6713287 Z M13.3146853,67.997108 C13.3146853,67.2162729 13.9467849,66.5916047 14.7412587,66.5916047 C15.5241344,66.5916047 16.156234,67.2162729 16.156234,67.997108 C16.156234,69.5529944 13.3146853,69.5529944 13.3146853,67.997108 Z" id="Shape"></path>
        </g>
    </g>
</svg>