<?xml version="1.0" encoding="UTF-8"?>
<svg width="153px" height="153px" viewBox="0 0 153 153" version="1.1" xmlns="http://www.w3.org/2000/svg" xmlns:xlink="http://www.w3.org/1999/xlink">
    <!-- Generator: Sketch 51.3 (57544) - http://www.bohemiancoding.com/sketch -->
    <title>Contact</title>
    <desc>Created with Sketch.</desc>
    <defs>
        <linearGradient x1="50%" y1="0%" x2="50%" y2="100%" id="linearGradient-1">
            <stop stop-color="#72015F" offset="0%"></stop>
            <stop stop-color="#FF00AA" offset="100%"></stop>
        </linearGradient>
    </defs>
    <g id="Contact" stroke="none" stroke-width="1" fill="none" fill-rule="evenodd">
        <g id="Group" transform="translate(12.000000, 9.000000)" fill="url(#linearGradient-1)" fill-rule="nonzero">
            <g id="Shape">
                <path d="M95.7145175,59.223956 L31.7493043,59.223956 C30.4428253,59.223956 29.3802224,58.1725275 29.3802224,56.8810989 C29.3802224,55.5896703 30.4486319,54.5382418 31.7493043,54.5382418 L95.7145175,54.5382418 C97.0209965,54.5382418 98.0835994,55.5896703 98.0835994,56.8810989 C98.0835994,58.1725275 97.0209965,59.223956 95.7145175,59.223956 Z"></path>
                <path d="M95.7145175,74.9725275 L31.7493043,74.9725275 C30.4428253,74.9725275 29.3802224,73.9153846 29.3802224,72.6296703 C29.3802224,71.3382418 30.4486319,70.2810989 31.7493043,70.2810989 L95.7145175,70.2810989 C97.0209965,70.2810989 98.0835994,71.3382418 98.0835994,72.6296703 C98.089406,73.9210989 97.0209965,74.9725275 95.7145175,74.9725275 Z"></path>
                <path d="M95.7145175,43.5096703 L31.7493043,43.5096703 C30.4428253,43.5096703 29.3802224,42.4582418 29.3802224,41.1668132 C29.3802224,39.8753846 30.4486319,38.823956 31.7493043,38.823956 L95.7145175,38.823956 C97.0209965,38.823956 98.0835994,39.8753846 98.0835994,41.1668132 C98.089406,42.4582418 97.0209965,43.5096703 95.7145175,43.5096703 Z"></path>
                <path d="M107.119513,135 L85.0579196,112.781454 C78.417689,114.775648 71.5771066,115.790035 64.6449348,115.790035 C28.9994899,115.790035 0,89.8194083 0,57.8892542 C0,25.9763907 28.9994899,0 64.6449348,0 C100.319001,0 129.335664,25.9763907 129.335664,57.8892542 C129.335664,74.6612304 121.252901,90.5110362 107.119513,101.536737 L107.119513,135 Z M86.3573441,107.421338 L102.437006,123.599667 L102.437006,99.1852026 L103.364349,98.4705204 C116.890956,88.3151176 124.641708,73.525808 124.641708,57.8892542 C124.641708,28.5757589 97.7316012,4.7261239 64.6506592,4.7261239 C31.6040631,4.7261239 4.69968046,28.5757589 4.69968046,57.8892542 C4.69968046,87.208513 31.5983388,111.069675 64.6506592,111.069675 C71.5713823,111.069675 78.400516,109.986125 85.0121249,107.853605 L86.3573441,107.421338 Z"></path>
            </g>
        </g>
    </g>
</svg>