<?xml version="1.0" encoding="UTF-8"?>
<svg width="153px" height="153px" viewBox="0 0 153 153" version="1.1" xmlns="http://www.w3.org/2000/svg" xmlns:xlink="http://www.w3.org/1999/xlink">
    <!-- Generator: Sketch 51.3 (57544) - http://www.bohemiancoding.com/sketch -->
    <title>LinkedIn</title>
    <desc>Created with Sketch.</desc>
    <defs>
        <linearGradient x1="50%" y1="0%" x2="50%" y2="100%" id="linearGradient-1">
            <stop stop-color="#72015F" offset="0%"></stop>
            <stop stop-color="#FF00AA" offset="100%"></stop>
        </linearGradient>
    </defs>
    <g id="LinkedIn" stroke="none" stroke-width="1" fill="none" fill-rule="evenodd">
        <g id="if_thin_B-100_1037132" transform="translate(33.000000, 33.000000)" fill="url(#linearGradient-1)" fill-rule="nonzero">
            <path d="M11.5027074,0 C5.16024484,0 0,5.15803515 0,11.4981952 C0,17.8401601 5.16024484,23 11.5027074,23 C17.843365,23 23,17.8401601 23,11.4981952 C23,5.15803515 17.843365,0 11.5027074,0 Z M11.5024281,20.1951999 C6.70608738,20.1951999 2.8049125,16.2943312 2.8049125,11.4983668 C2.8049125,6.70402102 6.70608738,2.80477087 11.5024281,2.80477087 C16.2955314,2.80477087 20.1950875,6.70402102 20.1950875,11.4983668 C20.1950875,16.2943312 16.2955314,20.1951999 11.5024281,20.1951999 Z" id="Shape"></path>
            <path d="M20.056519,27 L0.943480996,27 C0.422679486,27 0,27.4268318 0,27.9527496 L0,90.0472504 C0,90.5731682 0.422679486,91 0.943480996,91 L20.056519,91 C20.5773205,91 21,90.5731682 21,90.0472504 L21,27.9527496 C21,27.4268318 20.5792075,27 20.056519,27 Z M18,88 L3,88 L3,30 L18,30 L18,88 Z" id="Shape"></path>
            <path d="M66.7067706,27 C58.5930882,27 52.834694,30.8478735 49.7299122,34.8477572 L49.7299122,29.3991977 C49.7299122,28.8937178 49.3174145,28.4834734 48.8091584,28.4834734 L30.9207538,28.4834734 C30.4124977,28.4834734 30,28.8937178 30,29.3991977 L30,89.0806128 C30,89.5860926 30.4124977,89.9963371 30.9207538,89.9963371 L49.5568105,89.9963371 C50.0650666,89.9963371 50.4775643,89.5860926 50.4775643,89.0806128 L50.4775643,59.5576616 C50.4775643,52.0743626 51.7224234,45.151487 60.7494936,45.151487 C68.859493,45.151487 69.5205942,51.9040379 69.5205942,60.0594785 L69.5205942,89.0842757 C69.5205942,89.5897555 69.9330919,90 70.441348,90 L89.0792462,90 C89.5875023,90 90,89.5897555 90,89.0842757 L90,56.3453007 C90,41.105817 87.1788104,27 66.7067706,27 Z M88,87.1667196 L71.2981492,87.1667196 L71.2981492,60.0051127 C71.2981492,53.5633451 71.2981492,43.8299051 60.745275,43.8299051 C50.0697142,43.8299051 48.7000196,52.2148213 48.7000196,59.5202104 L48.7000196,87.1649499 L32,87.1649499 L32,31.2666886 L47.9565758,31.2666886 L47.9565758,38.2623774 C47.9565758,38.7508191 48.3667517,39.1472356 48.872147,39.1472356 L49.1211824,39.1472356 C49.4617749,39.1472356 49.771238,38.9649548 49.9305474,38.6747213 C52.1572167,34.5937553 57.8758747,29.8314486 66.669021,29.8314486 C84.3725067,29.8314486 88,40.4603651 88,56.4161279 L88,87.1667196 Z" id="Shape"></path>
            <path d="M66.7067706,28 C58.5930882,28 52.834694,31.8478735 49.7299122,35.8477572 L49.7299122,30.3991977 C49.7299122,29.8937178 49.3174145,29.4834734 48.8091584,29.4834734 L30.9207538,29.4834734 C30.4124977,29.4834734 30,29.8937178 30,30.3991977 L30,90.0806128 C30,90.5860926 30.4124977,90.9963371 30.9207538,90.9963371 L49.5568105,90.9963371 C50.0650666,90.9963371 50.4775643,90.5860926 50.4775643,90.0806128 L50.4775643,60.5576616 C50.4775643,53.0743626 51.7224234,46.151487 60.7494936,46.151487 C68.859493,46.151487 69.5205942,52.9040379 69.5205942,61.0594785 L69.5205942,90.0842757 C69.5205942,90.5897555 69.9330919,91 70.441348,91 L89.0792462,91 C89.5875023,91 90,90.5897555 90,90.0842757 L90,57.3453007 C90,42.105817 87.1788104,28 66.7067706,28 Z M88,88.1667196 L71.2981492,88.1667196 L71.2981492,61.0051127 C71.2981492,54.5633451 71.2981492,44.8299051 60.745275,44.8299051 C50.0697142,44.8299051 48.7000196,53.2148213 48.7000196,60.5202104 L48.7000196,88.1649499 L32,88.1649499 L32,32.2666886 L47.9565758,32.2666886 L47.9565758,39.2623774 C47.9565758,39.7508191 48.3667517,40.1472356 48.872147,40.1472356 L49.1211824,40.1472356 C49.4617749,40.1472356 49.771238,39.9649548 49.9305474,39.6747213 C52.1572167,35.5937553 57.8758747,30.8314486 66.669021,30.8314486 C84.3725067,30.8314486 88,41.4603651 88,57.4161279 L88,88.1667196 Z" id="Shape"></path>
        </g>
        <rect id="Rectangle" stroke="url(#linearGradient-1)" stroke-width="5" fill-rule="nonzero" x="11.5" y="11.5" width="130" height="130" rx="21"></rect>
    </g>
</svg>